<svg width="273" height="310" viewBox="0 0 273 310" fill="none" xmlns="http://www.w3.org/2000/svg">
<path d="M135.5 1L123 10L123.5 51L99.5 38L89 45V59L122.5 77.5V105.5L97.5 92.5V119.5L72.5 105.5V65.5L59.5 59L49.5 65.5V92.5L14 71.5L0.5 78.5V94.5L36.5 114.5L14 127.5V142.5L27 148L60.5 128L82.5 142.5L60.5 156.5L84.5 171L60.5 184.5L27 164.5L15 172V186L37 198.5L0.5 218.5V234L15 240.5L51 220V247L62 253.5L73.5 246V207L98 194L98.5 221.5L123 206V234L89 252.5V267L100.5 273.5L123 260.5V301L136.5 309L149 301V260.5L172 273.5L182.5 267V252.5L149 234V206L173.5 220V194L199 208V246.5L210.5 254L222.5 246.5V221L256.5 240.5L270.5 234V219L237.5 198.5L258 185.5V172L247.5 165L213 183.5L188 170L210 156.5L189 141L213 126.5L247.5 147L258 141V126.5L236.5 114L272 93.5V79L259.5 71L222 91.5V64L210 58.5L199 64V105.5L173 119.5V90.5L149 105.5L148.5 77.5L184 57.5V45L172 37.5L148.5 51V10L135.5 1Z" fill="#27D4A9" stroke="black"/>
</svg>
