<svg width="23" height="31" viewBox="0 0 23 31" fill="none" xmlns="http://www.w3.org/2000/svg">
<path d="M4 28.5738H2C1.2 28.5738 1 27.7745 1 27.3749V12M4 28.5738C4 29.7148 4.66667 30 5 30H6.5C7.3 30 7.5 29.0492 7.5 28.5738M4 28.5738H7.5M7.5 28.5738H15.5M19 28.5738H21C21.3333 28.5738 22 28.334 22 27.3749V12M19 28.5738C19 29.7148 18.3333 30 18 30H16.5C15.7 30 15.5 29.0492 15.5 28.5738M19 28.5738H15.5M1 12V2.19886C1 1.23977 1.66667 1 2 1H21C21.8 1 22 1.79924 22 2.19886V12M1 12H22M3 5V7.5V10M3 15V20.5" stroke="#27D4A9" stroke-linecap="round" stroke-linejoin="round"/>
</svg>
