<svg width="44" height="35" viewBox="0 0 44 35" fill="none" xmlns="http://www.w3.org/2000/svg">
<circle cx="12" cy="7" r="6.5" fill="#27D4A9" stroke="black"/>
<circle cx="32" cy="7" r="6.5" fill="#27D4A9" stroke="black"/>
<circle cx="22" cy="7" r="6.5" fill="#27D4A9" stroke="black"/>
<mask id="path-4-inside-1_624_3" fill="white">
<path d="M22 23C22 19.8174 20.8411 16.7652 18.7782 14.5147C16.7153 12.2643 13.9174 11 11 11C8.08262 11 5.28473 12.2643 3.22183 14.5147C1.15893 16.7652 4.40512e-07 19.8174 0 23L11 23H22Z"/>
</mask>
<path d="M22 23C22 19.8174 20.8411 16.7652 18.7782 14.5147C16.7153 12.2643 13.9174 11 11 11C8.08262 11 5.28473 12.2643 3.22183 14.5147C1.15893 16.7652 4.40512e-07 19.8174 0 23L11 23H22Z" fill="#27D4A9" stroke="black" stroke-width="2" mask="url(#path-4-inside-1_624_3)"/>
<mask id="path-5-inside-2_624_3" fill="white">
<path d="M44 23C44 19.8174 42.8411 16.7652 40.7782 14.5147C38.7153 12.2643 35.9174 11 33 11C30.0826 11 27.2847 12.2643 25.2218 14.5147C23.1589 16.7652 22 19.8174 22 23L33 23H44Z"/>
</mask>
<path d="M44 23C44 19.8174 42.8411 16.7652 40.7782 14.5147C38.7153 12.2643 35.9174 11 33 11C30.0826 11 27.2847 12.2643 25.2218 14.5147C23.1589 16.7652 22 19.8174 22 23L33 23H44Z" fill="#27D4A9" stroke="black" stroke-width="2" mask="url(#path-5-inside-2_624_3)"/>
<mask id="path-6-inside-3_624_3" fill="white">
<path d="M33 23C33 19.8174 31.8411 16.7652 29.7782 14.5147C27.7153 12.2643 24.9174 11 22 11C19.0826 11 16.2847 12.2643 14.2218 14.5147C12.1589 16.7652 11 19.8174 11 23L22 23H33Z"/>
</mask>
<path d="M33 23C33 19.8174 31.8411 16.7652 29.7782 14.5147C27.7153 12.2643 24.9174 11 22 11C19.0826 11 16.2847 12.2643 14.2218 14.5147C12.1589 16.7652 11 19.8174 11 23L22 23H33Z" fill="#27D4A9" stroke="black" stroke-width="2" mask="url(#path-6-inside-3_624_3)"/>
</svg>
