<svg width="37" height="34" viewBox="0 0 37 34" fill="none" xmlns="http://www.w3.org/2000/svg">
<g filter="url(#filter0_d_144_2)">
<path d="M20.0594 1.81462C18.8991 0.753864 18.0919 0.703351 16.982 1.81462C15.7713 2.8754 6.53933 10.9069 6.53933 10.9069C4.21876 12.5234 4.77369 14.4933 6.53933 14.4933H7.95187V23.5351C7.95187 24.6464 8.40593 25 9.31396 25H14.1065C14.9137 25 15.3677 24.2928 15.3677 23.5351V18.4333C15.3677 17.6251 15.4686 17.5241 16.3767 17.5241H20.7152C21.5728 17.5241 21.5728 17.8272 21.5728 18.6354V23.5351C21.5728 24.3434 22.2287 25 22.8844 25H27.7274C28.2824 24.6969 28.9886 24.1413 28.9886 23.5351V14.3923H31.0065C31.4101 14.3923 33.0245 12.7759 31.0065 11.4626L20.0594 1.81462Z" fill="#27D4A9"/>
<path d="M20.0594 1.81462C18.8991 0.753864 18.0919 0.703351 16.982 1.81462C15.7713 2.8754 6.53933 10.9069 6.53933 10.9069C4.21876 12.5234 4.77369 14.4933 6.53933 14.4933H7.95187V23.5351C7.95187 24.6464 8.40593 25 9.31396 25H14.1065C14.9137 25 15.3677 24.2928 15.3677 23.5351V18.4333C15.3677 17.6251 15.4686 17.5241 16.3767 17.5241H20.7152C21.5728 17.5241 21.5728 17.8272 21.5728 18.6354V23.5351C21.5728 24.3434 22.2287 25 22.8844 25H27.7274C28.2824 24.6969 28.9886 24.1413 28.9886 23.5351V14.3923H31.0065C31.4101 14.3923 33.0245 12.7759 31.0065 11.4626L20.0594 1.81462Z" stroke="black"/>
</g>
<defs>
<filter id="filter0_d_144_2" x="0.499817" y="0.5" width="36.0002" height="33" filterUnits="userSpaceOnUse" color-interpolation-filters="sRGB">
<feFlood flood-opacity="0" result="BackgroundImageFix"/>
<feColorMatrix in="SourceAlpha" type="matrix" values="0 0 0 0 0 0 0 0 0 0 0 0 0 0 0 0 0 0 127 0" result="hardAlpha"/>
<feOffset dy="4"/>
<feGaussianBlur stdDeviation="2"/>
<feComposite in2="hardAlpha" operator="out"/>
<feColorMatrix type="matrix" values="0 0 0 0 0 0 0 0 0 0 0 0 0 0 0 0 0 0 0.25 0"/>
<feBlend mode="normal" in2="BackgroundImageFix" result="effect1_dropShadow_144_2"/>
<feBlend mode="normal" in="SourceGraphic" in2="effect1_dropShadow_144_2" result="shape"/>
</filter>
</defs>
</svg>
