<svg width="69" height="46" viewBox="0 0 69 46" fill="none" xmlns="http://www.w3.org/2000/svg">
<path d="M11.8295 22.4548C11.7784 22.023 11.571 21.6877 11.2074 21.4491C10.8438 21.2105 10.3977 21.0912 9.86932 21.0912C9.48295 21.0912 9.14489 21.1537 8.85511 21.2787C8.56818 21.4037 8.34375 21.5755 8.18182 21.7943C8.02273 22.013 7.94318 22.2616 7.94318 22.54C7.94318 22.773 7.99858 22.9733 8.10938 23.1409C8.22301 23.3056 8.3679 23.4434 8.54403 23.5542C8.72017 23.6622 8.90483 23.7517 9.09801 23.8227C9.29119 23.8909 9.46875 23.9463 9.63068 23.9889L10.517 24.2275C10.7443 24.2872 10.9972 24.3696 11.2756 24.4747C11.5568 24.5798 11.8253 24.7233 12.081 24.9051C12.3395 25.0841 12.5526 25.3142 12.7202 25.5954C12.8878 25.8767 12.9716 26.2218 12.9716 26.6309C12.9716 27.1025 12.848 27.5287 12.6009 27.9093C12.3565 28.29 11.9986 28.5926 11.527 28.817C11.0582 29.0414 10.4886 29.1537 9.81818 29.1537C9.19318 29.1537 8.65199 29.0528 8.1946 28.8511C7.74006 28.6494 7.3821 28.3681 7.12074 28.0073C6.86222 27.6466 6.71591 27.2275 6.68182 26.7502H7.77273C7.80114 27.0798 7.91193 27.3525 8.10511 27.5684C8.30114 27.7815 8.5483 27.9406 8.84659 28.0457C9.14773 28.148 9.47159 28.1991 9.81818 28.1991C10.2216 28.1991 10.5838 28.1338 10.9048 28.0031C11.2259 27.8696 11.4801 27.6849 11.6676 27.4491C11.8551 27.2105 11.9489 26.9321 11.9489 26.6139C11.9489 26.3241 11.8679 26.0883 11.706 25.9065C11.544 25.7247 11.331 25.5769 11.0668 25.4633C10.8026 25.3497 10.517 25.2502 10.2102 25.165L9.13636 24.8582C8.45455 24.6622 7.91477 24.3823 7.51705 24.0187C7.11932 23.6551 6.92045 23.1792 6.92045 22.5912C6.92045 22.1025 7.05256 21.6764 7.31676 21.3127C7.58381 20.9463 7.94176 20.6622 8.39062 20.4605C8.84233 20.2559 9.34659 20.1537 9.90341 20.1537C10.4659 20.1537 10.9659 20.2545 11.4034 20.4562C11.8409 20.6551 12.1875 20.9278 12.4432 21.2744C12.7017 21.621 12.8381 22.0144 12.8523 22.4548H11.8295ZM15.2205 31.4548C15.0501 31.4548 14.8981 31.4406 14.7646 31.4122C14.631 31.3866 14.5387 31.361 14.4876 31.3355L14.7433 30.4491C14.9876 30.5116 15.2035 30.5343 15.391 30.5173C15.5785 30.5002 15.7447 30.4164 15.8896 30.2659C16.0373 30.1181 16.1722 29.8781 16.2944 29.5457L16.4819 29.0343L14.0614 22.4548H15.1523L16.9592 27.6707H17.0273L18.8342 22.4548H19.9251L17.1467 29.9548C17.0217 30.2929 16.8668 30.5727 16.6822 30.7943C16.4975 31.0187 16.283 31.1849 16.0387 31.2929C15.7972 31.4008 15.5245 31.4548 15.2205 31.4548ZM22.2582 25.0627V29.0002H21.2525V22.4548H22.2241V23.4775H22.3093C22.4627 23.1451 22.6957 22.8781 23.0082 22.6764C23.3207 22.4718 23.7241 22.3696 24.2184 22.3696C24.6616 22.3696 25.0494 22.4605 25.3817 22.6423C25.7141 22.8213 25.9727 23.094 26.1573 23.4605C26.342 23.8241 26.4343 24.2843 26.4343 24.8412V29.0002H25.4286V24.9093C25.4286 24.3951 25.2951 23.9946 25.0281 23.7076C24.761 23.4179 24.3945 23.273 23.9286 23.273C23.6076 23.273 23.3207 23.3426 23.0678 23.4818C22.8178 23.621 22.6204 23.8241 22.4755 24.0912C22.3306 24.3582 22.2582 24.6821 22.2582 25.0627ZM30.9311 29.1366C30.3175 29.1366 29.7891 28.9917 29.3459 28.7019C28.9027 28.4122 28.5618 28.013 28.3232 27.5045C28.0845 26.996 27.9652 26.415 27.9652 25.7616C27.9652 25.0968 28.0874 24.5102 28.3317 24.0017C28.5788 23.4903 28.9226 23.0912 29.3629 22.8042C29.8061 22.5144 30.3232 22.3696 30.9141 22.3696C31.3743 22.3696 31.7891 22.4548 32.1584 22.6252C32.5277 22.7957 32.8303 23.0343 33.0661 23.3412C33.3018 23.648 33.4482 24.0059 33.505 24.415H32.4993C32.4226 24.1167 32.2521 23.8525 31.9879 23.6224C31.7266 23.3894 31.3743 23.273 30.9311 23.273C30.5391 23.273 30.1953 23.3752 29.8999 23.5798C29.6072 23.7815 29.3786 24.067 29.2138 24.4363C29.0518 24.8028 28.9709 25.2332 28.9709 25.7275C28.9709 26.2332 29.0504 26.6735 29.2095 27.0485C29.3714 27.4235 29.5987 27.7147 29.8913 27.9221C30.1868 28.1295 30.5334 28.2332 30.9311 28.2332C31.1925 28.2332 31.4297 28.1877 31.6428 28.0968C31.8558 28.0059 32.0362 27.8752 32.1839 27.7048C32.3317 27.5343 32.4368 27.3298 32.4993 27.0912H33.505C33.4482 27.4775 33.3075 27.8255 33.0831 28.1352C32.8615 28.442 32.5675 28.6863 32.201 28.8681C31.8374 29.0471 31.4141 29.1366 30.9311 29.1366Z" fill="black"/>
<path d="M35.1115 29.0002V20.273H40.3445V21.2105H36.1683V24.1593H39.9524V25.0968H36.1683V29.0002H35.1115ZM44.1967 29.1366C43.6058 29.1366 43.0874 28.996 42.6413 28.7147C42.1982 28.4335 41.8516 28.04 41.6016 27.5343C41.3544 27.0287 41.2308 26.4377 41.2308 25.7616C41.2308 25.0798 41.3544 24.4846 41.6016 23.9761C41.8516 23.4676 42.1982 23.0727 42.6413 22.7914C43.0874 22.5102 43.6058 22.3696 44.1967 22.3696C44.7876 22.3696 45.3047 22.5102 45.7479 22.7914C46.1939 23.0727 46.5405 23.4676 46.7876 23.9761C47.0376 24.4846 47.1626 25.0798 47.1626 25.7616C47.1626 26.4377 47.0376 27.0287 46.7876 27.5343C46.5405 28.04 46.1939 28.4335 45.7479 28.7147C45.3047 28.996 44.7876 29.1366 44.1967 29.1366ZM44.1967 28.2332C44.6456 28.2332 45.0149 28.1181 45.3047 27.888C45.5945 27.6579 45.8089 27.3554 45.9482 26.9804C46.0874 26.6054 46.157 26.1991 46.157 25.7616C46.157 25.3241 46.0874 24.9164 45.9482 24.5386C45.8089 24.1608 45.5945 23.8554 45.3047 23.6224C45.0149 23.3894 44.6456 23.273 44.1967 23.273C43.7479 23.273 43.3786 23.3894 43.0888 23.6224C42.799 23.8554 42.5845 24.1608 42.4453 24.5386C42.3061 24.9164 42.2365 25.3241 42.2365 25.7616C42.2365 26.1991 42.3061 26.6054 42.4453 26.9804C42.5845 27.3554 42.799 27.6579 43.0888 27.888C43.3786 28.1181 43.7479 28.2332 44.1967 28.2332ZM51.3569 29.1366C50.766 29.1366 50.2475 28.996 49.8015 28.7147C49.3583 28.4335 49.0117 28.04 48.7617 27.5343C48.5146 27.0287 48.391 26.4377 48.391 25.7616C48.391 25.0798 48.5146 24.4846 48.7617 23.9761C49.0117 23.4676 49.3583 23.0727 49.8015 22.7914C50.2475 22.5102 50.766 22.3696 51.3569 22.3696C51.9478 22.3696 52.4648 22.5102 52.908 22.7914C53.354 23.0727 53.7006 23.4676 53.9478 23.9761C54.1978 24.4846 54.3228 25.0798 54.3228 25.7616C54.3228 26.4377 54.1978 27.0287 53.9478 27.5343C53.7006 28.04 53.354 28.4335 52.908 28.7147C52.4648 28.996 51.9478 29.1366 51.3569 29.1366ZM51.3569 28.2332C51.8058 28.2332 52.1751 28.1181 52.4648 27.888C52.7546 27.6579 52.9691 27.3554 53.1083 26.9804C53.2475 26.6054 53.3171 26.1991 53.3171 25.7616C53.3171 25.3241 53.2475 24.9164 53.1083 24.5386C52.9691 24.1608 52.7546 23.8554 52.4648 23.6224C52.1751 23.3894 51.8058 23.273 51.3569 23.273C50.908 23.273 50.5387 23.3894 50.2489 23.6224C49.9592 23.8554 49.7447 24.1608 49.6055 24.5386C49.4663 24.9164 49.3967 25.3241 49.3967 25.7616C49.3967 26.1991 49.4663 26.6054 49.6055 26.9804C49.7447 27.3554 49.9592 27.6579 50.2489 27.888C50.5387 28.1181 50.908 28.2332 51.3569 28.2332ZM58.3295 29.1366C57.7841 29.1366 57.3026 28.9988 56.8849 28.7233C56.4673 28.4448 56.1406 28.0528 55.9048 27.5471C55.669 27.0386 55.5511 26.4377 55.5511 25.7446C55.5511 25.0571 55.669 24.4605 55.9048 23.9548C56.1406 23.4491 56.4688 23.0585 56.8892 22.7829C57.3097 22.5073 57.7955 22.3696 58.3466 22.3696C58.7727 22.3696 59.1094 22.4406 59.3565 22.5826C59.6065 22.7218 59.7969 22.8809 59.9276 23.0599C60.0611 23.236 60.1648 23.3809 60.2386 23.4946H60.3239V20.273H61.3295V29.0002H60.358V27.9946H60.2386C60.1648 28.1139 60.0597 28.2644 59.9233 28.4463C59.7869 28.6252 59.5923 28.7858 59.3395 28.9278C59.0866 29.067 58.75 29.1366 58.3295 29.1366ZM58.4659 28.2332C58.8693 28.2332 59.2102 28.1281 59.4886 27.9179C59.767 27.7048 59.9787 27.4108 60.1236 27.0358C60.2685 26.6579 60.3409 26.2218 60.3409 25.7275C60.3409 25.2389 60.2699 24.8113 60.1278 24.4448C59.9858 24.0755 59.7756 23.7886 59.4972 23.5841C59.2188 23.3767 58.875 23.273 58.4659 23.273C58.0398 23.273 57.6847 23.3823 57.4006 23.6011C57.1193 23.817 56.9077 24.111 56.7656 24.4832C56.6264 24.8525 56.5568 25.2673 56.5568 25.7275C56.5568 26.1934 56.6278 26.6167 56.7699 26.9974C56.9148 27.3752 57.1278 27.6764 57.4091 27.9008C57.6932 28.1224 58.0455 28.2332 58.4659 28.2332Z" fill="#27D4A9"/>
<path d="M14.6174 32.2044L1.04667 35.1815L12.3434 35.2825L12.6619 36.1706L12.3349 37.053L1.67535 38.7282L12.3213 39.93L12.6398 40.8181L12.3118 41.9218L1.01299 42.2634L14.5564 45.0403C14.5564 45.0403 17.2113 45.4106 18.7544 44.6352C20.3997 43.8085 20.6523 41.6307 22.3227 40.9047C23.0536 40.587 23.5011 40.6154 24.2614 40.4794C27.8236 39.8425 29.8728 40.2999 33.4601 40.5617C37.7624 40.8756 40.1223 41.9578 44.4267 42.209C46.7565 42.345 48.2642 43.5529 50.3978 42.2624C51.1497 41.8076 51.5754 41.4917 52.1804 40.7291C52.7094 40.0622 53.3563 39.7316 53.3195 38.7474C53.2852 37.8299 52.7121 37.5565 52.1983 36.9669C51.5926 36.2719 51.1623 36.0263 50.4294 35.6231C48.2651 34.4325 46.7888 35.4593 44.4583 35.5697C40.1456 35.7741 37.7865 36.966 33.4759 37.2421C29.8874 37.4719 27.8331 37.8604 24.2772 37.1598C23.5182 37.0103 23.0691 37.0363 22.3427 36.6999C20.6454 35.9138 20.4788 33.5826 18.8113 32.6846C17.2815 31.8607 14.6174 32.2044 14.6174 32.2044Z" fill="black" stroke="black"/>
<path d="M40.4255 9.22432L47.3649 9.27782C47.3649 9.27782 48.7643 5.9385 50.1284 4.43017C51.4449 2.97445 52.377 2.39462 54.0125 1.80431C56.1457 1.03434 57.4968 1.26142 59.6608 1.84787C61.7161 2.40485 62.9032 2.96179 64.6528 4.54216C65.9204 5.68712 66.8107 6.28245 67.5432 8.10551C67.8992 8.99154 68.234 9.53613 68.1787 10.5449C68.1322 11.3937 67.8418 11.7997 67.525 12.5317C66.7287 14.372 65.9047 15.0879 64.6047 16.2716C62.8594 17.8608 61.6507 18.3635 59.591 18.8887C57.4223 19.4417 56.0694 19.648 53.9426 18.8452C52.3121 18.2297 50.0803 16.1596 50.0803 16.1596L47.355 11.7122C47.355 11.7122 43.1248 11.5701 40.4155 11.6587C37.3853 11.7578 35.682 11.8425 32.6664 12.2629C30.0683 12.6252 28.6507 13.3146 26.0443 13.5398C23.717 13.7408 22.3414 14.236 20.0732 13.4937C18.968 13.132 18.26 13.0498 17.3351 12.1447C16.7547 11.5767 16.1586 11.331 16.0513 10.3643C15.9224 9.2021 16.6716 8.65416 17.3524 7.93982C18.2393 7.00918 19.0033 7.14081 20.1004 6.85443C22.3912 6.25646 23.7443 6.69927 26.0715 6.90047C28.6695 7.12508 30.0989 7.63467 32.6837 8.05804C35.7038 8.5527 40.4255 9.22432 40.4255 9.22432Z" fill="#27D4A9" stroke="black"/>
</svg>
