<svg width="23" height="31" viewBox="0 0 23 31" fill="none" xmlns="http://www.w3.org/2000/svg">
<path d="M5.35849 30C3.77358 30 3.37736 30 3.37736 28.4935H6.9434C6.9434 29.6234 6.9434 30 5.35849 30Z" fill="#D9D9D9"/>
<path d="M2.98113 7.4026L1.07142 4.86128C1.02507 4.79959 1 4.72451 1 4.64734V4.64734C1 4.49355 1.09873 4.35713 1.24482 4.30906L8.48898 1.92553C10.3161 1.32436 12.2877 1.32436 14.1148 1.92552L21.4991 4.35518C21.568 4.37785 21.631 4.41553 21.6836 4.4655V4.4655C21.864 4.63693 21.8872 4.91628 21.7378 5.11519L20.0189 7.4026M2.98113 7.4026V23.974M2.98113 7.4026H11.3019M20.0189 7.4026V23.974M20.0189 7.4026H15.6604H11.3019M20.0189 23.974C20.8113 23.974 21.2075 24.7273 21.2075 25.1039V27.7403C21.2075 28.4935 20.4151 28.4935 20.0189 28.4935H18.8302M20.0189 23.974H11.3019M3.37736 28.4935C2.58491 28.4935 1.39623 28.4935 1.39623 27.7403V25.1039C1.39623 24.3506 2.18868 23.974 2.98113 23.974M3.37736 28.4935C3.37736 30 3.77358 30 5.35849 30C6.9434 30 6.9434 29.6234 6.9434 28.4935M3.37736 28.4935H6.9434M2.98113 23.974H11.3019M11.3019 7.4026V23.974M6.9434 28.4935H15.2642M15.2642 28.4935C15.2642 30 15.6604 30 17.2453 30C18.8302 30 18.8302 29.6234 18.8302 28.4935M15.2642 28.4935H18.8302M9.32075 13.8052V15.6883V17.5714M13.283 13.8052V17.5714M13.283 25.8571H17.6415M9.32075 25.8571H4.96226" stroke="#27D4A9" stroke-linecap="round"/>
</svg>
